<svg width="123" height="32" viewBox="0 0 123 32" fill="none" xmlns="http://www.w3.org/2000/svg">
<path d="M38.0928 31.656C37.7515 31.656 37.4765 31.5517 37.2679 31.3431C37.0783 31.1535 36.9835 30.888 36.9835 30.5467V17.1209C37.0025 15.6418 37.3533 14.3144 38.0359 13.1387C38.7376 11.944 39.6762 11.0053 40.8519 10.3227C42.0466 9.64 43.3835 9.29866 44.8626 9.29866C46.3796 9.29866 47.7355 9.64948 48.9302 10.3511C50.1248 11.0338 51.0635 11.9724 51.7462 13.1671C52.4478 14.3618 52.7986 15.7176 52.7986 17.2347C52.7986 18.7327 52.4573 20.0791 51.7746 21.2738C51.1109 22.4684 50.2007 23.4166 49.0439 24.1182C47.8872 24.8009 46.5788 25.1422 45.1186 25.1422C43.8481 25.1422 42.6913 24.8767 41.6484 24.3458C40.6244 23.7959 39.7995 23.0753 39.1737 22.184V30.5467C39.1737 30.888 39.0694 31.1535 38.8608 31.3431C38.6712 31.5517 38.4152 31.656 38.0928 31.656ZM44.8626 23.1511C45.9625 23.1511 46.9485 22.8951 47.8208 22.3831C48.6931 21.8711 49.3758 21.1695 49.8688 20.2782C50.3808 19.368 50.6368 18.3535 50.6368 17.2347C50.6368 16.0969 50.3808 15.0824 49.8688 14.1911C49.3758 13.2999 48.6931 12.5982 47.8208 12.0862C46.9485 11.5553 45.9625 11.2898 44.8626 11.2898C43.7817 11.2898 42.8051 11.5553 41.9328 12.0862C41.0605 12.5982 40.3779 13.2999 39.8848 14.1911C39.3918 15.0824 39.1453 16.0969 39.1453 17.2347C39.1453 18.3535 39.3918 19.368 39.8848 20.2782C40.3779 21.1695 41.0605 21.8711 41.9328 22.3831C42.8051 22.8951 43.7817 23.1511 44.8626 23.1511ZM57.7773 18.6569C57.4359 18.6569 57.161 18.5526 56.9524 18.344C56.7628 18.1354 56.6679 17.8699 56.6679 17.5476V3.89422C56.6679 3.55289 56.7628 3.2874 56.9524 3.09777C57.161 2.88918 57.4359 2.78489 57.7773 2.78489C58.0996 2.78489 58.3556 2.88918 58.5453 3.09777C58.7539 3.2874 58.8582 3.55289 58.8582 3.89422V17.5476C58.8582 17.8699 58.7539 18.1354 58.5453 18.344C58.3556 18.5526 58.0996 18.6569 57.7773 18.6569ZM70.0084 25C69.686 25 69.4205 24.8957 69.2119 24.6871C69.0034 24.4785 68.8991 24.2225 68.8991 23.9191V16.5236C68.8991 15.3479 68.6715 14.3807 68.2164 13.6222C67.7802 12.8637 67.1734 12.2948 66.3959 11.9156C65.6374 11.5363 64.7746 11.3467 63.8075 11.3467C62.8783 11.3467 62.0345 11.5268 61.2759 11.8871C60.5364 12.2474 59.9485 12.7404 59.5124 13.3662C59.0762 13.992 58.8582 14.7031 58.8582 15.4996H57.2937C57.3316 14.3049 57.654 13.243 58.2608 12.3138C58.8676 11.3656 59.6736 10.6261 60.6786 10.0951C61.6836 9.54518 62.8025 9.27022 64.0351 9.27022C65.3814 9.27022 66.5856 9.55466 67.6475 10.1236C68.7094 10.6735 69.5438 11.4889 70.1506 12.5698C70.7764 13.6507 71.0893 14.9686 71.0893 16.5236V23.9191C71.0893 24.2225 70.985 24.4785 70.7764 24.6871C70.5678 24.8957 70.3118 25 70.0084 25ZM57.7773 25C57.4359 25 57.161 24.9052 56.9524 24.7156C56.7628 24.507 56.6679 24.2415 56.6679 23.9191V10.5502C56.6679 10.2089 56.7628 9.94341 56.9524 9.75378C57.161 9.54518 57.4359 9.44089 57.7773 9.44089C58.0996 9.44089 58.3556 9.54518 58.5453 9.75378C58.7539 9.94341 58.8582 10.2089 58.8582 10.5502V23.9191C58.8582 24.2415 58.7539 24.507 58.5453 24.7156C58.3556 24.9052 58.0996 25 57.7773 25ZM82.5739 25.1422C81.0569 25.1422 79.7011 24.8009 78.5064 24.1182C77.3117 23.4356 76.3731 22.4969 75.6904 21.3022C75.0077 20.1076 74.6664 18.7517 74.6664 17.2347C74.6664 15.6987 75.0077 14.3333 75.6904 13.1387C76.3731 11.944 77.3117 11.0053 78.5064 10.3227C79.7011 9.64 81.0569 9.29866 82.5739 9.29866C84.091 9.29866 85.4374 9.64 86.6131 10.3227C87.8077 11.0053 88.7464 11.944 89.4291 13.1387C90.1117 14.3333 90.4625 15.6987 90.4815 17.2347C90.4815 18.7517 90.1307 20.1076 89.4291 21.3022C88.7464 22.4969 87.8077 23.4356 86.6131 24.1182C85.4374 24.8009 84.091 25.1422 82.5739 25.1422ZM82.5739 23.1511C83.6738 23.1511 84.6599 22.8951 85.5322 22.3831C86.4045 21.8711 87.0871 21.1695 87.5802 20.2782C88.0732 19.387 88.3197 18.3724 88.3197 17.2347C88.3197 16.0969 88.0732 15.0824 87.5802 14.1911C87.0871 13.2809 86.4045 12.5698 85.5322 12.0578C84.6599 11.5458 83.6738 11.2898 82.5739 11.2898C81.4741 11.2898 80.488 11.5458 79.6157 12.0578C78.7434 12.5698 78.0513 13.2809 77.5393 14.1911C77.0462 15.0824 76.7997 16.0969 76.7997 17.2347C76.7997 18.3724 77.0462 19.387 77.5393 20.2782C78.0513 21.1695 78.7434 21.8711 79.6157 22.3831C80.488 22.8951 81.4741 23.1511 82.5739 23.1511ZM100.402 25C99.3967 25 98.4959 24.763 97.6995 24.2889C96.922 23.8148 96.3057 23.1701 95.8506 22.3547C95.3955 21.5203 95.1679 20.5721 95.1679 19.5102V5.60089C95.1679 5.27852 95.2628 5.01303 95.4524 4.80444C95.661 4.59585 95.9265 4.49155 96.2488 4.49155C96.5712 4.49155 96.8367 4.59585 97.0453 4.80444C97.2539 5.01303 97.3582 5.27852 97.3582 5.60089V19.5102C97.3582 20.4773 97.6426 21.2738 98.2115 21.8996C98.7804 22.5064 99.5105 22.8098 100.402 22.8098H101.17C101.473 22.8098 101.72 22.9141 101.909 23.1227C102.099 23.3313 102.194 23.5967 102.194 23.9191C102.194 24.2415 102.08 24.507 101.852 24.7156C101.625 24.9052 101.34 25 100.999 25H100.402ZM93.3191 11.9156C93.0346 11.9156 92.7976 11.8302 92.6079 11.6596C92.4183 11.4699 92.3235 11.2424 92.3235 10.9769C92.3235 10.6924 92.4183 10.4649 92.6079 10.2942C92.7976 10.1046 93.0346 10.0098 93.3191 10.0098H100.572C100.857 10.0098 101.094 10.1046 101.284 10.2942C101.473 10.4649 101.568 10.6924 101.568 10.9769C101.568 11.2424 101.473 11.4699 101.284 11.6596C101.094 11.8302 100.857 11.9156 100.572 11.9156H93.3191ZM112.415 25.1422C110.898 25.1422 109.542 24.8009 108.347 24.1182C107.153 23.4356 106.214 22.4969 105.531 21.3022C104.849 20.1076 104.507 18.7517 104.507 17.2347C104.507 15.6987 104.849 14.3333 105.531 13.1387C106.214 11.944 107.153 11.0053 108.347 10.3227C109.542 9.64 110.898 9.29866 112.415 9.29866C113.932 9.29866 115.278 9.64 116.454 10.3227C117.649 11.0053 118.587 11.944 119.27 13.1387C119.953 14.3333 120.304 15.6987 120.323 17.2347C120.323 18.7517 119.972 20.1076 119.27 21.3022C118.587 22.4969 117.649 23.4356 116.454 24.1182C115.278 24.8009 113.932 25.1422 112.415 25.1422ZM112.415 23.1511C113.515 23.1511 114.501 22.8951 115.373 22.3831C116.246 21.8711 116.928 21.1695 117.421 20.2782C117.914 19.387 118.161 18.3724 118.161 17.2347C118.161 16.0969 117.914 15.0824 117.421 14.1911C116.928 13.2809 116.246 12.5698 115.373 12.0578C114.501 11.5458 113.515 11.2898 112.415 11.2898C111.315 11.2898 110.329 11.5458 109.457 12.0578C108.585 12.5698 107.892 13.2809 107.38 14.1911C106.887 15.0824 106.641 16.0969 106.641 17.2347C106.641 18.3724 106.887 19.387 107.38 20.2782C107.892 21.1695 108.585 21.8711 109.457 22.3831C110.329 22.8951 111.315 23.1511 112.415 23.1511Z" fill="black"/>
<path fill-rule="evenodd" clip-rule="evenodd" d="M15.8464 2.96297H8.58307e-06L6.67216 9.63512H22.5185L15.8464 2.96297ZM6.67215 9.63512V25.4815L0 18.8093V2.96297L6.67215 9.63512Z" fill="#CCCCCC"/>
<path fill-rule="evenodd" clip-rule="evenodd" d="M6.6712 25.4815L22.5176 25.4815L15.8454 18.8093L-0.000953674 18.8093L6.6712 25.4815ZM15.8454 18.8093L15.8454 2.96295L22.5176 9.63511L22.5176 25.4815L15.8454 18.8093Z" fill="black"/>
</svg>
